<?xml version="1.0" encoding="UTF-8"?>
<!-- Generated by Pixelmator Pro 3.6.16 -->
<svg width="283" height="283" viewBox="0 0 283 283" xmlns="http://www.w3.org/2000/svg">
    <path id="Circle" fill="#ffffff" fill-rule="evenodd" stroke="none" d="M 283 141.5 C 283 63.351715 219.648285 0 141.5 0 C 63.351707 0 0 63.351715 0 141.5 C 0 219.648285 63.351707 283 141.5 283 C 219.648285 283 283 219.648285 283 141.5 Z"/>
    <path id="YM" fill="#000000" fill-rule="evenodd" stroke="none" d="M 186.363846 152.25293 L 208.465408 98.560547 L 241.617752 98.560547 L 241.617752 100.782715 L 238.975174 100.782715 C 236.572815 100.782715 234.65097 101.203125 233.209549 102.043945 C 232.208572 102.604492 231.407791 103.54541 230.807205 104.866699 C 230.366776 105.827637 230.146561 108.330048 230.146561 112.374023 L 230.146561 166.066406 C 230.146561 170.230484 230.366776 172.833008 230.807205 173.874023 C 231.247635 174.915039 232.148514 175.825928 233.509842 176.606689 C 234.871185 177.387451 236.692932 177.777832 238.975174 177.777832 L 241.617752 177.777832 L 241.617752 180 L 199.096268 180 L 199.096268 177.777832 L 201.738846 177.777832 C 204.141205 177.777832 206.063065 177.357422 207.504471 176.516602 C 208.505447 175.956055 209.306229 174.995117 209.906815 173.633789 C 210.347244 172.672852 210.567459 170.150406 210.567459 166.066406 L 210.567459 105.70752 L 179.33699 180 L 177.895584 180 L 146.184647 106.248047 L 146.184647 163.604004 C 146.184647 167.607925 146.284744 170.070313 146.48494 170.991211 C 147.005463 172.993179 148.136536 174.624756 149.87825 175.885986 C 151.619965 177.147217 154.3526 177.777832 158.076248 177.777832 L 158.076248 180 L 130.209061 180 L 130.209061 177.777832 L 131.049881 177.777832 C 132.851654 177.817871 134.533264 177.527588 136.094803 176.906982 C 137.656342 176.286377 138.837479 175.455566 139.63826 174.414551 C 140.439056 173.373535 141.059647 171.912109 141.500076 170.030273 C 141.580154 169.589844 141.620193 167.547867 141.620193 163.904297 L 141.620193 112.374023 C 141.620193 108.249969 141.399994 105.67749 140.959549 104.656494 C 140.519119 103.635498 139.618256 102.734619 138.256912 101.953857 C 136.895569 101.173096 135.073822 100.782715 132.79158 100.782715 L 130.209061 100.782715 L 130.209061 98.560547 L 163.481522 98.560547 Z M 121.445313 98.560547 L 121.445313 100.782715 C 118.76268 101.143066 116.700691 101.923828 115.259277 103.125 C 113.257317 104.806641 110.094261 109.391083 105.77002 116.878418 L 88.112793 146.367188 L 88.112793 166.066406 C 88.112793 170.270538 88.333008 172.883057 88.773438 173.904053 C 89.213867 174.925049 90.084709 175.825928 91.385986 176.606689 C 92.687263 177.387451 94.41893 177.777832 96.581055 177.777832 L 101.145508 177.777832 L 101.145508 180 L 55.440918 180 L 55.440918 177.777832 L 59.705078 177.777832 C 62.107433 177.777832 64.00927 177.357422 65.410645 176.516602 C 66.45166 175.956055 67.272461 174.995117 67.873047 173.633789 C 68.313477 172.672852 68.533691 170.150406 68.533691 166.066406 L 68.533691 149.730469 L 49.375 114.836426 C 45.57127 107.949677 42.88868 103.895752 41.327148 102.674561 C 39.765617 101.453369 37.683605 100.822754 35.081055 100.782715 L 35.081055 98.560547 L 74.119141 98.560547 L 74.119141 100.782715 L 72.377441 100.782715 C 70.015121 100.782715 68.363525 101.123047 67.422607 101.803711 C 66.481689 102.484375 66.01123 103.205078 66.01123 103.96582 C 66.01123 105.407227 67.612778 109.030731 70.815918 114.836426 L 85.530273 141.802734 L 100.18457 117.23877 C 103.82814 111.23288 105.649902 107.249023 105.649902 105.287109 C 105.649902 104.206055 105.129402 103.305176 104.088379 102.584473 C 102.727043 101.583496 100.224625 100.98291 96.581055 100.782715 L 96.581055 98.560547 Z"/>
</svg>
