<?xml version="1.0" encoding="UTF-8"?>
<!-- Generated by Pixelmator Pro 3.6.16 -->
<svg width="512" height="312" viewBox="0 0 512 312" xmlns="http://www.w3.org/2000/svg">
    <path id="Shape" fill="#ffffff" fill-rule="evenodd" stroke="none" d="M 251 297 C 139.348633 297 139.348633 297 136.974319 294.472656 C 135.423691 292.822113 134.600006 290.750061 134.600006 288.5 C 134.600006 286.249939 135.423691 284.177887 136.974319 282.527344 C 139.348633 280 139.348633 280 251 280 C 362.651367 280 362.651367 280 365.025696 282.527344 C 366.576294 284.177887 367.399994 286.249939 367.399994 288.5 C 367.399994 290.750061 366.576294 292.822113 365.025696 294.472656 C 362.651367 297 362.651367 297 251 297 Z M 251 257 C 54.846153 257 54.846153 257 51.923077 254.07692 C 49.928082 252.081924 49 250.152496 49 248 C 49 245.847504 49.928082 243.918076 51.923077 241.92308 C 54.846153 239 54.846153 239 251 239 C 447.153839 239 447.153839 239 450.076935 241.92308 C 452.07193 243.918076 453 245.847504 453 248 C 453 250.152496 452.07193 252.081924 450.076935 254.07692 C 447.153839 257 447.153839 257 251 257 Z M 431.5 198.5 C 500.863068 199.022339 501.434937 199.059998 503.731903 201.217865 C 505.014893 202.423187 506.32608 204.450989 506.645599 205.724091 C 506.965118 206.997192 506.662201 209.401306 505.972412 211.066559 C 505.282654 212.731827 503.45401 214.748093 501.908813 215.54715 C 499.473419 216.806549 466.435425 216.991562 253.799667 216.936615 C 118.88485 216.901749 7.6 216.504868 6.5 216.054642 C 5.4 215.604431 3.6 214.233917 2.5 213.009094 C 0.909801 211.238434 0.545522 209.580338 0.722165 204.916901 C 0.844356 201.69104 1.637153 196.064285 2.483937 192.413025 C 3.330721 188.76178 5.354989 182.449249 6.98231 178.385208 C 8.609631 174.321167 11.590369 168.417786 13.606173 165.266571 C 15.621975 162.115372 19.122734 157.333923 21.385635 154.641144 C 23.648535 151.94838 28.594883 147.318634 32.377518 144.352814 C 36.160152 141.387009 43.360153 136.932953 48.377518 134.454926 C 53.968246 131.69371 62.145779 128.779922 69.5 126.928619 C 76.898964 125.066055 86.702095 123.480972 95.067627 122.794571 C 108.635254 121.68132 108.635254 121.68132 113.337914 114.354065 C 115.92437 110.324081 120.574425 103.083282 123.671364 98.263412 C 126.768303 93.443542 129.511658 88.712494 129.767715 87.75 C 130.197418 86.13472 128.950516 86 113.571175 86 C 97.213898 86 96.864189 85.955093 94.454544 83.545456 C 92.786316 81.877228 92 79.972992 92 77.601212 C 92 75.354904 92.859444 73.111832 94.41214 71.305771 C 96.82428 68.5 96.82428 68.5 137.187546 68 C 177.550812 67.5 177.550812 67.5 182.525406 64.247177 C 185.261429 62.458115 188.399994 59.758118 189.5 58.247177 C 191.018112 56.161926 191.499435 53.920227 191.497681 48.94342 C 191.495667 43.288635 190.945511 41.294342 187.497681 34.44342 C 185.29895 30.074554 183.360718 25.043823 183.190475 23.264069 C 182.961929 20.874695 183.538651 19.370453 185.39502 17.514069 C 187.898575 15.010529 187.986221 15 206.3396 15 C 224.770096 15 224.770096 15 244.135056 28.8302 C 254.785767 36.436798 271.375 48.309113 281 55.213135 C 298.491425 67.759705 298.503418 67.766205 305.5 68.477386 C 309.350006 68.868713 317.450012 70.463013 323.5 72.020248 C 329.549988 73.577484 339.361023 76.891983 345.302277 79.385803 C 351.24353 81.879623 360.468506 86.266891 365.802277 89.1353 C 371.136017 92.003708 380.5271 97.642105 386.671326 101.66507 C 392.815552 105.688049 401.682098 111.909164 406.374817 115.489777 C 414.906982 122 414.906982 122 460.498932 122 C 506.090912 122 506.090912 122 508.504791 124.413879 C 509.832428 125.741516 511.201172 127.953369 511.546478 129.329117 C 511.923645 130.831924 511.49115 133.270035 510.463104 135.436523 C 509.521942 137.419846 503.569397 144.451996 497.235199 151.063507 C 490.901001 157.675034 482.069305 166.02121 477.609222 169.610565 C 473.149139 173.199936 465.674988 178.675415 461 181.778305 C 456.325012 184.881195 447.774994 189.912949 442 192.959961 L 431.5 198.5 Z M 192.113632 198.721405 C 364.265961 198.37323 364.51532 198.369812 375.78595 196.198486 C 381.993225 195.00264 390.543243 193.133484 394.78595 192.0448 C 399.028687 190.956116 407.038788 188.291748 412.586212 186.123993 C 418.133636 183.956238 427.174316 179.923477 432.676605 177.162292 C 438.178925 174.401093 447.365112 168.994019 453.090393 165.146545 C 458.815674 161.299088 467.662506 154.503891 472.75 150.046127 C 477.837494 145.588364 482 141.504364 482 140.970551 C 482 140.346542 413.966248 140 291.460571 140 C 162.23703 140 97.819305 140.345886 91.282089 141.074814 C 85.980598 141.66597 77.335831 143.268478 72.071503 144.635925 C 66.807175 146.003387 59.799999 148.451691 56.5 150.076614 C 53.200001 151.701523 47.700012 155.16153 44.277805 157.765503 C 40.855598 160.369476 35.905598 165.209015 33.277805 168.52005 C 30.650011 171.83107 26.769917 178.241806 24.655371 182.766113 C 22.540825 187.290436 20.566959 192.809662 20.269003 195.031097 C 19.727264 199.070068 19.727264 199.070068 192.113632 198.721405 Z M 94.873238 171.760605 C 90.042137 172.16124 89.03566 171.900894 86.203804 169.518036 C 83.592796 167.321014 83 166.090134 83 162.865646 C 83 159.998199 83.675652 158.233444 85.454544 156.454544 C 87.478516 154.430573 88.895363 154 93.531471 154 C 98.412338 154 99.539352 154.385513 102.07692 156.92308 C 104.017647 158.8638 105 160.861465 105 162.86731 C 105 164.5896 103.998032 167.053329 102.669441 168.597916 C 100.800117 170.771118 99.257164 171.397049 94.873238 171.760605 Z M 129.011627 172 C 126.31987 172 124.223282 171.217316 122.076729 169.411102 C 119.595726 167.323486 119 166.056122 119 162.865646 C 119 159.998199 119.675652 158.233444 121.454544 156.454544 C 123.455734 154.453354 124.90844 154 129.319687 154 C 133.278564 154 135.436966 154.555878 137.364105 156.071762 C 138.812698 157.211227 140.284088 159.283722 140.63385 160.677277 C 141.014572 162.194229 140.615829 164.582397 139.640244 166.628235 C 138.743988 168.507706 136.853989 170.485214 135.440247 171.02272 C 134.026505 171.560226 131.133621 172 129.011627 172 Z M 165.126389 172 C 162.311172 172 160.256897 171.24559 158.076721 169.411102 C 155.595734 167.323486 155 166.056122 155 162.865646 C 155 159.998199 155.675644 158.233444 157.454544 156.454544 C 159.455734 154.453354 160.908432 154 165.319687 154 C 169.278564 154 171.436966 154.555878 173.364105 156.071762 C 174.812698 157.211227 176.274368 159.244965 176.612244 160.591171 C 176.950119 161.937378 176.662201 164.401306 175.972427 166.066574 C 175.282654 167.731827 173.454025 169.748093 171.908813 170.547165 C 170.363586 171.346222 167.311493 172 165.126389 172 Z M 201.126389 172 C 198.311172 172 196.256897 171.24559 194.076721 169.411102 C 191.595734 167.323486 191 166.056122 191 162.865646 C 191 159.998199 191.675644 158.233444 193.454544 156.454544 C 195.455734 154.453354 196.908432 154 201.319687 154 C 205.227005 154 207.44101 154.559067 209.288361 156.012192 C 210.695313 157.118881 212.126984 159.301651 212.469864 160.862778 C 212.812744 162.423889 212.534683 164.927155 211.851959 166.425583 C 211.16922 167.924011 209.37059 169.791245 207.85498 170.574997 C 206.339371 171.358749 203.311493 172 201.126389 172 Z M 153.014267 85.908218 C 144.734741 98.766846 139.571365 106.887497 136.198456 112.25 L 130.065887 122 L 256.782959 121.968201 C 370.30719 121.939697 383.291779 121.778336 381.5 120.418304 C 380.399994 119.583359 377.435608 117.572678 374.912445 115.950119 C 370.32489 113 370.32489 113 333.617004 113 C 296.909088 113 296.909088 113 294.454559 110.545456 C 292.693909 108.784805 292 106.996536 292 104.219772 C 292 101.353119 292.668854 99.719559 294.577667 97.924316 C 297.069977 95.580292 297.773804 95.483444 315.827667 95 C 334.5 94.5 334.5 94.5 327.5 92.263229 C 323.649994 91.033005 317.575012 89.258743 314 88.320435 C 308.204834 86.799423 299.124023 86.576141 230.257126 86.261322 L 153.014267 85.908218 Z M 206.466873 113 C 158.111526 113 158.111526 113 155.355759 110.629593 C 153.282608 108.846344 152.600006 107.353378 152.600006 104.602325 C 152.600006 101.955643 153.351944 100.193314 155.322006 98.222733 C 158.044006 95.5 158.044006 95.5 204.74437 95.220779 C 238.694839 95.017807 252.215942 95.261017 254.269516 96.111633 C 255.823166 96.755173 257.748108 98.545975 258.54715 100.091187 C 259.346222 101.636414 260 103.788498 260 104.873611 C 260 105.958725 258.834991 108.231079 257.411102 109.923279 C 254.82222 113 254.82222 113 206.466873 113 Z M 236.166672 67.947556 C 263.670532 67.901505 267.255554 67.719574 265.5 66.458893 C 264.399994 65.668991 259.526764 62.142609 254.670563 58.622498 C 249.814377 55.102386 239.701859 47.78479 232.198318 42.361145 C 220.831314 34.144989 217.83963 32.441315 214.26416 32.148224 C 211.903931 31.954742 209.344513 32.037567 208.576584 32.332245 C 207.389862 32.787628 207.407166 33.641815 208.69194 38.024597 C 209.683304 41.406433 210.062271 45.817261 209.793076 50.840576 C 209.54364 55.494904 208.641632 60.069366 207.494034 62.5 C 206.455322 64.699997 205.431732 66.837494 205.219406 67.25 C 205.007065 67.662506 218.933334 67.976395 236.166672 67.947556 Z"/>
</svg>
